  0
SECTION
  2
BLOCKS
  0
ENDSEC
  0
SECTION
  2
ENTITIES
  0
LINE
  8
0
 10
17.5
 20
3.5
 11
-17.5
 21
3.5
  0
LINE
  8
0
 10
-17.5
 20
3.5
 11
-17.5
 21
-3.5
  0
LINE
  8
0
 10
-17.5
 20
-3.5
 11
17.5
 21
-3.5
  0
LINE
  8
0
 10
17.5
 20
-3.5
 11
17.5
 21
3.5
  0
LINE
  8
0
 10
-15.6799
 20
-1.13583
 11
-15.8554
 21
-1.0937
  0
LINE
  8
0
 10
-15.8554
 20
-1.0937
 11
-16.0221
 21
-1.02464
  0
LINE
  8
0
 10
-16.0221
 20
-1.02464
 11
-16.1759
 21
-0.930359
  0
LINE
  8
0
 10
-16.1759
 20
-0.930359
 11
-16.3132
 21
-0.813171
  0
LINE
  8
0
 10
-16.3132
 20
-0.813171
 11
-16.4304
 21
-0.675949
  0
LINE
  8
0
 10
-16.4304
 20
-0.675949
 11
-16.5246
 21
-0.522079
  0
LINE
  8
0
 10
-16.5246
 20
-0.522079
 11
-16.5937
 21
-0.355362
  0
LINE
  8
0
 10
-16.5937
 20
-0.355362
 11
-16.6358
 21
-0.179886
  0
LINE
  8
0
 10
-16.6358
 20
-0.179886
 11
-16.65
 21
0
  0
LINE
  8
0
 10
-16.65
 20
0
 11
-16.6358
 21
0.179886
  0
LINE
  8
0
 10
-16.6358
 20
0.179886
 11
-16.5937
 21
0.355362
  0
LINE
  8
0
 10
-16.5937
 20
0.355362
 11
-16.5246
 21
0.522079
  0
LINE
  8
0
 10
-16.5246
 20
0.522079
 11
-16.4304
 21
0.675949
  0
LINE
  8
0
 10
-16.4304
 20
0.675949
 11
-16.3132
 21
0.813171
  0
LINE
  8
0
 10
-16.3132
 20
0.813171
 11
-16.1759
 21
0.930359
  0
LINE
  8
0
 10
-16.1759
 20
0.930359
 11
-16.0221
 21
1.02464
  0
LINE
  8
0
 10
-16.0221
 20
1.02464
 11
-15.8554
 21
1.0937
  0
LINE
  8
0
 10
-15.8554
 20
1.0937
 11
-15.6799
 21
1.13583
  0
LINE
  8
0
 10
-15.6799
 20
1.13583
 11
-15.5
 21
1.14999
  0
LINE
  8
0
 10
-15.5
 20
1.14999
 11
-15.3201
 21
1.13583
  0
LINE
  8
0
 10
-15.3201
 20
1.13583
 11
-15.1446
 21
1.0937
  0
LINE
  8
0
 10
-15.1446
 20
1.0937
 11
-14.9779
 21
1.02464
  0
LINE
  8
0
 10
-14.9779
 20
1.02464
 11
-14.824
 21
0.930359
  0
LINE
  8
0
 10
-14.824
 20
0.930359
 11
-14.6868
 21
0.813171
  0
LINE
  8
0
 10
-14.6868
 20
0.813171
 11
-14.5696
 21
0.675949
  0
LINE
  8
0
 10
-14.5696
 20
0.675949
 11
-14.4753
 21
0.522079
  0
LINE
  8
0
 10
-14.4753
 20
0.522079
 11
-14.4063
 21
0.355362
  0
LINE
  8
0
 10
-14.4063
 20
0.355362
 11
-14.3642
 21
0.179886
  0
LINE
  8
0
 10
-14.3642
 20
0.179886
 11
-14.35
 21
0
  0
LINE
  8
0
 10
-14.35
 20
0
 11
-14.3642
 21
-0.179886
  0
LINE
  8
0
 10
-14.3642
 20
-0.179886
 11
-14.4063
 21
-0.355362
  0
LINE
  8
0
 10
-14.4063
 20
-0.355362
 11
-14.4753
 21
-0.522079
  0
LINE
  8
0
 10
-14.4753
 20
-0.522079
 11
-14.5696
 21
-0.675949
  0
LINE
  8
0
 10
-14.5696
 20
-0.675949
 11
-14.6868
 21
-0.813171
  0
LINE
  8
0
 10
-14.6868
 20
-0.813171
 11
-14.824
 21
-0.930359
  0
LINE
  8
0
 10
-14.824
 20
-0.930359
 11
-14.9779
 21
-1.02464
  0
LINE
  8
0
 10
-14.9779
 20
-1.02464
 11
-15.1446
 21
-1.0937
  0
LINE
  8
0
 10
-15.1446
 20
-1.0937
 11
-15.3201
 21
-1.13583
  0
LINE
  8
0
 10
-15.3201
 20
-1.13583
 11
-15.5
 21
-1.14999
  0
LINE
  8
0
 10
-15.5
 20
-1.14999
 11
-15.6799
 21
-1.13583
  0
LINE
  8
0
 10
15.3201
 20
-1.13583
 11
15.1446
 21
-1.0937
  0
LINE
  8
0
 10
15.1446
 20
-1.0937
 11
14.9779
 21
-1.02464
  0
LINE
  8
0
 10
14.9779
 20
-1.02464
 11
14.824
 21
-0.930359
  0
LINE
  8
0
 10
14.824
 20
-0.930359
 11
14.6868
 21
-0.813171
  0
LINE
  8
0
 10
14.6868
 20
-0.813171
 11
14.5696
 21
-0.675949
  0
LINE
  8
0
 10
14.5696
 20
-0.675949
 11
14.4753
 21
-0.522079
  0
LINE
  8
0
 10
14.4753
 20
-0.522079
 11
14.4063
 21
-0.355362
  0
LINE
  8
0
 10
14.4063
 20
-0.355362
 11
14.3642
 21
-0.179886
  0
LINE
  8
0
 10
14.3642
 20
-0.179886
 11
14.35
 21
0
  0
LINE
  8
0
 10
14.35
 20
0
 11
14.3642
 21
0.179886
  0
LINE
  8
0
 10
14.3642
 20
0.179886
 11
14.4063
 21
0.355362
  0
LINE
  8
0
 10
14.4063
 20
0.355362
 11
14.4753
 21
0.522079
  0
LINE
  8
0
 10
14.4753
 20
0.522079
 11
14.5696
 21
0.675949
  0
LINE
  8
0
 10
14.5696
 20
0.675949
 11
14.6868
 21
0.813171
  0
LINE
  8
0
 10
14.6868
 20
0.813171
 11
14.824
 21
0.930359
  0
LINE
  8
0
 10
14.824
 20
0.930359
 11
14.9779
 21
1.02464
  0
LINE
  8
0
 10
14.9779
 20
1.02464
 11
15.1446
 21
1.0937
  0
LINE
  8
0
 10
15.1446
 20
1.0937
 11
15.3201
 21
1.13583
  0
LINE
  8
0
 10
15.3201
 20
1.13583
 11
15.5
 21
1.14999
  0
LINE
  8
0
 10
15.5
 20
1.14999
 11
15.6799
 21
1.13583
  0
LINE
  8
0
 10
15.6799
 20
1.13583
 11
15.8554
 21
1.0937
  0
LINE
  8
0
 10
15.8554
 20
1.0937
 11
16.0221
 21
1.02464
  0
LINE
  8
0
 10
16.0221
 20
1.02464
 11
16.1759
 21
0.930359
  0
LINE
  8
0
 10
16.1759
 20
0.930359
 11
16.3132
 21
0.813171
  0
LINE
  8
0
 10
16.3132
 20
0.813171
 11
16.4304
 21
0.675949
  0
LINE
  8
0
 10
16.4304
 20
0.675949
 11
16.5246
 21
0.522079
  0
LINE
  8
0
 10
16.5246
 20
0.522079
 11
16.5937
 21
0.355362
  0
LINE
  8
0
 10
16.5937
 20
0.355362
 11
16.6358
 21
0.179886
  0
LINE
  8
0
 10
16.6358
 20
0.179886
 11
16.65
 21
0
  0
LINE
  8
0
 10
16.65
 20
0
 11
16.6358
 21
-0.179886
  0
LINE
  8
0
 10
16.6358
 20
-0.179886
 11
16.5937
 21
-0.355362
  0
LINE
  8
0
 10
16.5937
 20
-0.355362
 11
16.5246
 21
-0.522079
  0
LINE
  8
0
 10
16.5246
 20
-0.522079
 11
16.4304
 21
-0.675949
  0
LINE
  8
0
 10
16.4304
 20
-0.675949
 11
16.3132
 21
-0.813171
  0
LINE
  8
0
 10
16.3132
 20
-0.813171
 11
16.1759
 21
-0.930359
  0
LINE
  8
0
 10
16.1759
 20
-0.930359
 11
16.0221
 21
-1.02464
  0
LINE
  8
0
 10
16.0221
 20
-1.02464
 11
15.8554
 21
-1.0937
  0
LINE
  8
0
 10
15.8554
 20
-1.0937
 11
15.6799
 21
-1.13583
  0
LINE
  8
0
 10
15.6799
 20
-1.13583
 11
15.5
 21
-1.14999
  0
LINE
  8
0
 10
15.5
 20
-1.14999
 11
15.3201
 21
-1.13583
  0
ENDSEC
  0
SECTION
  2
OBJECTS
  0
DICTIONARY
  0
ENDSEC
  0
EOF
