  0
SECTION
  2
BLOCKS
  0
ENDSEC
  0
SECTION
  2
ENTITIES
  0
LINE
  8
0
 10
16.8154
 20
-5.62286
 11
16.8805
 21
-5.61644
  0
LINE
  8
0
 10
16.8805
 20
-5.61644
 11
16.9451
 21
-5.60579
  0
LINE
  8
0
 10
16.9451
 20
-5.60579
 11
17.0088
 21
-5.59093
  0
LINE
  8
0
 10
17.0088
 20
-5.59093
 11
17.0714
 21
-5.57193
  0
LINE
  8
0
 10
17.0714
 20
-5.57193
 11
17.1327
 21
-5.54887
  0
LINE
  8
0
 10
17.1327
 20
-5.54887
 11
17.1923
 21
-5.52187
  0
LINE
  8
0
 10
17.1923
 20
-5.52187
 11
17.25
 21
-5.49103
  0
LINE
  8
0
 10
17.25
 20
-5.49103
 11
17.3056
 21
-5.45647
  0
LINE
  8
0
 10
17.3056
 20
-5.45647
 11
17.3588
 21
-5.41835
  0
LINE
  8
0
 10
17.3588
 20
-5.41835
 11
17.4093
 21
-5.37685
  0
LINE
  8
0
 10
17.4093
 20
-5.37685
 11
17.4571
 21
-5.33211
  0
LINE
  8
0
 10
17.4571
 20
-5.33211
 11
17.5018
 21
-5.28435
  0
LINE
  8
0
 10
17.5018
 20
-5.28435
 11
17.5434
 21
-5.23376
  0
LINE
  8
0
 10
17.5434
 20
-5.23376
 11
17.5815
 21
-5.18057
  0
LINE
  8
0
 10
17.5815
 20
-5.18057
 11
17.616
 21
-5.125
  0
LINE
  8
0
 10
17.616
 20
-5.125
 11
17.6469
 21
-5.06729
  0
LINE
  8
0
 10
17.6469
 20
-5.06729
 11
17.6739
 21
-5.00769
  0
LINE
  8
0
 10
17.6739
 20
-5.00769
 11
17.6969
 21
-4.94644
  0
LINE
  8
0
 10
17.6969
 20
-4.94644
 11
17.7159
 21
-4.88382
  0
LINE
  8
0
 10
17.7159
 20
-4.88382
 11
17.7308
 21
-4.82008
  0
LINE
  8
0
 10
17.7308
 20
-4.82008
 11
17.7414
 21
-4.75552
  0
LINE
  8
0
 10
17.7414
 20
-4.75552
 11
17.7479
 21
-4.6904
  0
LINE
  8
0
 10
17.7479
 20
-4.6904
 11
17.75
 21
-4.625
  0
LINE
  8
0
 10
17.75
 20
-4.625
 11
17.75
 21
4.625
  0
LINE
  8
0
 10
17.75
 20
4.625
 11
17.7479
 21
4.6904
  0
LINE
  8
0
 10
17.7479
 20
4.6904
 11
17.7414
 21
4.75552
  0
LINE
  8
0
 10
17.7414
 20
4.75552
 11
17.7308
 21
4.82008
  0
LINE
  8
0
 10
17.7308
 20
4.82008
 11
17.7159
 21
4.88382
  0
LINE
  8
0
 10
17.7159
 20
4.88382
 11
17.6969
 21
4.94644
  0
LINE
  8
0
 10
17.6969
 20
4.94644
 11
17.6739
 21
5.00769
  0
LINE
  8
0
 10
17.6739
 20
5.00769
 11
17.6469
 21
5.06729
  0
LINE
  8
0
 10
17.6469
 20
5.06729
 11
17.616
 21
5.125
  0
LINE
  8
0
 10
17.616
 20
5.125
 11
17.5815
 21
5.18057
  0
LINE
  8
0
 10
17.5815
 20
5.18057
 11
17.5434
 21
5.23376
  0
LINE
  8
0
 10
17.5434
 20
5.23376
 11
17.5018
 21
5.28435
  0
LINE
  8
0
 10
17.5018
 20
5.28435
 11
17.4571
 21
5.33211
  0
LINE
  8
0
 10
17.4571
 20
5.33211
 11
17.4093
 21
5.37685
  0
LINE
  8
0
 10
17.4093
 20
5.37685
 11
17.3588
 21
5.41835
  0
LINE
  8
0
 10
17.3588
 20
5.41835
 11
17.3056
 21
5.45647
  0
LINE
  8
0
 10
17.3056
 20
5.45647
 11
17.25
 21
5.49103
  0
LINE
  8
0
 10
17.25
 20
5.49103
 11
17.1923
 21
5.52187
  0
LINE
  8
0
 10
17.1923
 20
5.52187
 11
17.1327
 21
5.54887
  0
LINE
  8
0
 10
17.1327
 20
5.54887
 11
17.0714
 21
5.57193
  0
LINE
  8
0
 10
17.0714
 20
5.57193
 11
17.0088
 21
5.59093
  0
LINE
  8
0
 10
17.0088
 20
5.59093
 11
16.9451
 21
5.60579
  0
LINE
  8
0
 10
16.9451
 20
5.60579
 11
16.8805
 21
5.61644
  0
LINE
  8
0
 10
16.8805
 20
5.61644
 11
16.8154
 21
5.62286
  0
LINE
  8
0
 10
16.8154
 20
5.62286
 11
16.75
 21
5.625
  0
LINE
  8
0
 10
16.75
 20
5.625
 11
-16.75
 21
5.625
  0
LINE
  8
0
 10
-16.75
 20
5.625
 11
-16.8154
 21
5.62286
  0
LINE
  8
0
 10
-16.8154
 20
5.62286
 11
-16.8805
 21
5.61644
  0
LINE
  8
0
 10
-16.8805
 20
5.61644
 11
-16.9451
 21
5.60579
  0
LINE
  8
0
 10
-16.9451
 20
5.60579
 11
-17.0088
 21
5.59093
  0
LINE
  8
0
 10
-17.0088
 20
5.59093
 11
-17.0714
 21
5.57193
  0
LINE
  8
0
 10
-17.0714
 20
5.57193
 11
-17.1327
 21
5.54887
  0
LINE
  8
0
 10
-17.1327
 20
5.54887
 11
-17.1923
 21
5.52187
  0
LINE
  8
0
 10
-17.1923
 20
5.52187
 11
-17.25
 21
5.49103
  0
LINE
  8
0
 10
-17.25
 20
5.49103
 11
-17.3056
 21
5.45647
  0
LINE
  8
0
 10
-17.3056
 20
5.45647
 11
-17.3588
 21
5.41835
  0
LINE
  8
0
 10
-17.3588
 20
5.41835
 11
-17.4093
 21
5.37685
  0
LINE
  8
0
 10
-17.4093
 20
5.37685
 11
-17.4571
 21
5.33211
  0
LINE
  8
0
 10
-17.4571
 20
5.33211
 11
-17.5018
 21
5.28435
  0
LINE
  8
0
 10
-17.5018
 20
5.28435
 11
-17.5434
 21
5.23376
  0
LINE
  8
0
 10
-17.5434
 20
5.23376
 11
-17.5815
 21
5.18057
  0
LINE
  8
0
 10
-17.5815
 20
5.18057
 11
-17.616
 21
5.125
  0
LINE
  8
0
 10
-17.616
 20
5.125
 11
-17.6469
 21
5.06729
  0
LINE
  8
0
 10
-17.6469
 20
5.06729
 11
-17.6739
 21
5.00769
  0
LINE
  8
0
 10
-17.6739
 20
5.00769
 11
-17.6969
 21
4.94644
  0
LINE
  8
0
 10
-17.6969
 20
4.94644
 11
-17.7159
 21
4.88382
  0
LINE
  8
0
 10
-17.7159
 20
4.88382
 11
-17.7308
 21
4.82008
  0
LINE
  8
0
 10
-17.7308
 20
4.82008
 11
-17.7414
 21
4.75552
  0
LINE
  8
0
 10
-17.7414
 20
4.75552
 11
-17.7479
 21
4.6904
  0
LINE
  8
0
 10
-17.7479
 20
4.6904
 11
-17.75
 21
4.625
  0
LINE
  8
0
 10
-17.75
 20
4.625
 11
-17.75
 21
-4.625
  0
LINE
  8
0
 10
-17.75
 20
-4.625
 11
-17.7479
 21
-4.6904
  0
LINE
  8
0
 10
-17.7479
 20
-4.6904
 11
-17.7414
 21
-4.75552
  0
LINE
  8
0
 10
-17.7414
 20
-4.75552
 11
-17.7308
 21
-4.82008
  0
LINE
  8
0
 10
-17.7308
 20
-4.82008
 11
-17.7159
 21
-4.88382
  0
LINE
  8
0
 10
-17.7159
 20
-4.88382
 11
-17.6969
 21
-4.94644
  0
LINE
  8
0
 10
-17.6969
 20
-4.94644
 11
-17.6739
 21
-5.00769
  0
LINE
  8
0
 10
-17.6739
 20
-5.00769
 11
-17.6469
 21
-5.06729
  0
LINE
  8
0
 10
-17.6469
 20
-5.06729
 11
-17.616
 21
-5.125
  0
LINE
  8
0
 10
-17.616
 20
-5.125
 11
-17.5815
 21
-5.18057
  0
LINE
  8
0
 10
-17.5815
 20
-5.18057
 11
-17.5434
 21
-5.23376
  0
LINE
  8
0
 10
-17.5434
 20
-5.23376
 11
-17.5018
 21
-5.28435
  0
LINE
  8
0
 10
-17.5018
 20
-5.28435
 11
-17.4571
 21
-5.33211
  0
LINE
  8
0
 10
-17.4571
 20
-5.33211
 11
-17.4093
 21
-5.37685
  0
LINE
  8
0
 10
-17.4093
 20
-5.37685
 11
-17.3588
 21
-5.41835
  0
LINE
  8
0
 10
-17.3588
 20
-5.41835
 11
-17.3056
 21
-5.45647
  0
LINE
  8
0
 10
-17.3056
 20
-5.45647
 11
-17.25
 21
-5.49103
  0
LINE
  8
0
 10
-17.25
 20
-5.49103
 11
-17.1923
 21
-5.52187
  0
LINE
  8
0
 10
-17.1923
 20
-5.52187
 11
-17.1327
 21
-5.54887
  0
LINE
  8
0
 10
-17.1327
 20
-5.54887
 11
-17.0714
 21
-5.57193
  0
LINE
  8
0
 10
-17.0714
 20
-5.57193
 11
-17.0088
 21
-5.59093
  0
LINE
  8
0
 10
-17.0088
 20
-5.59093
 11
-16.9451
 21
-5.60579
  0
LINE
  8
0
 10
-16.9451
 20
-5.60579
 11
-16.8805
 21
-5.61644
  0
LINE
  8
0
 10
-16.8805
 20
-5.61644
 11
-16.8154
 21
-5.62286
  0
LINE
  8
0
 10
-16.8154
 20
-5.62286
 11
-16.75
 21
-5.625
  0
LINE
  8
0
 10
-16.75
 20
-5.625
 11
16.75
 21
-5.625
  0
LINE
  8
0
 10
16.75
 20
-5.625
 11
16.8154
 21
-5.62286
  0
LINE
  8
0
 10
-15.6799
 20
-0.412827
 11
-15.8554
 21
-0.370712
  0
LINE
  8
0
 10
-15.8554
 20
-0.370712
 11
-16.0221
 21
-0.301651
  0
LINE
  8
0
 10
-16.0221
 20
-0.301651
 11
-16.1759
 21
-0.207367
  0
LINE
  8
0
 10
-16.1759
 20
-0.207367
 11
-16.3132
 21
-0.0901642
  0
LINE
  8
0
 10
-16.3132
 20
-0.0901642
 11
-16.4304
 21
0.0470428
  0
LINE
  8
0
 10
-16.4304
 20
0.0470428
 11
-16.5246
 21
0.200897
  0
LINE
  8
0
 10
-16.5246
 20
0.200897
 11
-16.5937
 21
0.36763
  0
LINE
  8
0
 10
-16.5937
 20
0.36763
 11
-16.6358
 21
0.543091
  0
LINE
  8
0
 10
-16.6358
 20
0.543091
 11
-16.65
 21
0.722992
  0
LINE
  8
0
 10
-16.65
 20
0.722992
 11
-16.6358
 21
0.902893
  0
LINE
  8
0
 10
-16.6358
 20
0.902893
 11
-16.5937
 21
1.07837
  0
LINE
  8
0
 10
-16.5937
 20
1.07837
 11
-16.5246
 21
1.24509
  0
LINE
  8
0
 10
-16.5246
 20
1.24509
 11
-16.4304
 21
1.39894
  0
LINE
  8
0
 10
-16.4304
 20
1.39894
 11
-16.3132
 21
1.53616
  0
LINE
  8
0
 10
-16.3132
 20
1.53616
 11
-16.1759
 21
1.65337
  0
LINE
  8
0
 10
-16.1759
 20
1.65337
 11
-16.0221
 21
1.74765
  0
LINE
  8
0
 10
-16.0221
 20
1.74765
 11
-15.8554
 21
1.81671
  0
LINE
  8
0
 10
-15.8554
 20
1.81671
 11
-15.6799
 21
1.85884
  0
LINE
  8
0
 10
-15.6799
 20
1.85884
 11
-15.5
 21
1.87299
  0
LINE
  8
0
 10
-15.5
 20
1.87299
 11
-15.3201
 21
1.85884
  0
LINE
  8
0
 10
-15.3201
 20
1.85884
 11
-15.1446
 21
1.81671
  0
LINE
  8
0
 10
-15.1446
 20
1.81671
 11
-14.9779
 21
1.74765
  0
LINE
  8
0
 10
-14.9779
 20
1.74765
 11
-14.824
 21
1.65337
  0
LINE
  8
0
 10
-14.824
 20
1.65337
 11
-14.6868
 21
1.53616
  0
LINE
  8
0
 10
-14.6868
 20
1.53616
 11
-14.5696
 21
1.39894
  0
LINE
  8
0
 10
-14.5696
 20
1.39894
 11
-14.4753
 21
1.24509
  0
LINE
  8
0
 10
-14.4753
 20
1.24509
 11
-14.4063
 21
1.07837
  0
LINE
  8
0
 10
-14.4063
 20
1.07837
 11
-14.3642
 21
0.902893
  0
LINE
  8
0
 10
-14.3642
 20
0.902893
 11
-14.35
 21
0.722992
  0
LINE
  8
0
 10
-14.35
 20
0.722992
 11
-14.3642
 21
0.543091
  0
LINE
  8
0
 10
-14.3642
 20
0.543091
 11
-14.4063
 21
0.36763
  0
LINE
  8
0
 10
-14.4063
 20
0.36763
 11
-14.4753
 21
0.200897
  0
LINE
  8
0
 10
-14.4753
 20
0.200897
 11
-14.5696
 21
0.0470428
  0
LINE
  8
0
 10
-14.5696
 20
0.0470428
 11
-14.6868
 21
-0.0901642
  0
LINE
  8
0
 10
-14.6868
 20
-0.0901642
 11
-14.824
 21
-0.207367
  0
LINE
  8
0
 10
-14.824
 20
-0.207367
 11
-14.9779
 21
-0.301651
  0
LINE
  8
0
 10
-14.9779
 20
-0.301651
 11
-15.1446
 21
-0.370712
  0
LINE
  8
0
 10
-15.1446
 20
-0.370712
 11
-15.3201
 21
-0.412827
  0
LINE
  8
0
 10
-15.3201
 20
-0.412827
 11
-15.5
 21
-0.426987
  0
LINE
  8
0
 10
-15.5
 20
-0.426987
 11
-15.6799
 21
-0.412827
  0
LINE
  8
0
 10
15.3201
 20
-0.412827
 11
15.1446
 21
-0.370712
  0
LINE
  8
0
 10
15.1446
 20
-0.370712
 11
14.9779
 21
-0.301651
  0
LINE
  8
0
 10
14.9779
 20
-0.301651
 11
14.824
 21
-0.207367
  0
LINE
  8
0
 10
14.824
 20
-0.207367
 11
14.6868
 21
-0.0901642
  0
LINE
  8
0
 10
14.6868
 20
-0.0901642
 11
14.5696
 21
0.0470428
  0
LINE
  8
0
 10
14.5696
 20
0.0470428
 11
14.4753
 21
0.200897
  0
LINE
  8
0
 10
14.4753
 20
0.200897
 11
14.4063
 21
0.36763
  0
LINE
  8
0
 10
14.4063
 20
0.36763
 11
14.3642
 21
0.543091
  0
LINE
  8
0
 10
14.3642
 20
0.543091
 11
14.35
 21
0.722992
  0
LINE
  8
0
 10
14.35
 20
0.722992
 11
14.3642
 21
0.902893
  0
LINE
  8
0
 10
14.3642
 20
0.902893
 11
14.4063
 21
1.07837
  0
LINE
  8
0
 10
14.4063
 20
1.07837
 11
14.4753
 21
1.24509
  0
LINE
  8
0
 10
14.4753
 20
1.24509
 11
14.5696
 21
1.39894
  0
LINE
  8
0
 10
14.5696
 20
1.39894
 11
14.6868
 21
1.53616
  0
LINE
  8
0
 10
14.6868
 20
1.53616
 11
14.824
 21
1.65337
  0
LINE
  8
0
 10
14.824
 20
1.65337
 11
14.9779
 21
1.74765
  0
LINE
  8
0
 10
14.9779
 20
1.74765
 11
15.1446
 21
1.81671
  0
LINE
  8
0
 10
15.1446
 20
1.81671
 11
15.3201
 21
1.85884
  0
LINE
  8
0
 10
15.3201
 20
1.85884
 11
15.5
 21
1.87299
  0
LINE
  8
0
 10
15.5
 20
1.87299
 11
15.6799
 21
1.85884
  0
LINE
  8
0
 10
15.6799
 20
1.85884
 11
15.8554
 21
1.81671
  0
LINE
  8
0
 10
15.8554
 20
1.81671
 11
16.0221
 21
1.74765
  0
LINE
  8
0
 10
16.0221
 20
1.74765
 11
16.1759
 21
1.65337
  0
LINE
  8
0
 10
16.1759
 20
1.65337
 11
16.3132
 21
1.53616
  0
LINE
  8
0
 10
16.3132
 20
1.53616
 11
16.4304
 21
1.39894
  0
LINE
  8
0
 10
16.4304
 20
1.39894
 11
16.5246
 21
1.24509
  0
LINE
  8
0
 10
16.5246
 20
1.24509
 11
16.5937
 21
1.07837
  0
LINE
  8
0
 10
16.5937
 20
1.07837
 11
16.6358
 21
0.902893
  0
LINE
  8
0
 10
16.6358
 20
0.902893
 11
16.65
 21
0.722992
  0
LINE
  8
0
 10
16.65
 20
0.722992
 11
16.6358
 21
0.543091
  0
LINE
  8
0
 10
16.6358
 20
0.543091
 11
16.5937
 21
0.36763
  0
LINE
  8
0
 10
16.5937
 20
0.36763
 11
16.5246
 21
0.200897
  0
LINE
  8
0
 10
16.5246
 20
0.200897
 11
16.4304
 21
0.0470428
  0
LINE
  8
0
 10
16.4304
 20
0.0470428
 11
16.3132
 21
-0.0901642
  0
LINE
  8
0
 10
16.3132
 20
-0.0901642
 11
16.1759
 21
-0.207367
  0
LINE
  8
0
 10
16.1759
 20
-0.207367
 11
16.0221
 21
-0.301651
  0
LINE
  8
0
 10
16.0221
 20
-0.301651
 11
15.8554
 21
-0.370712
  0
LINE
  8
0
 10
15.8554
 20
-0.370712
 11
15.6799
 21
-0.412827
  0
LINE
  8
0
 10
15.6799
 20
-0.412827
 11
15.5
 21
-0.426987
  0
LINE
  8
0
 10
15.5
 20
-0.426987
 11
15.3201
 21
-0.412827
  0
ENDSEC
  0
SECTION
  2
OBJECTS
  0
DICTIONARY
  0
ENDSEC
  0
EOF
