  0
SECTION
  2
BLOCKS
  0
ENDSEC
  0
SECTION
  2
ENTITIES
  0
LINE
  8
0
 10
19.7588
 20
-3.79092
 11
20
 21
-3.69102
  0
LINE
  8
0
 10
20
 20
-3.69102
 11
20.2071
 21
-3.5321
  0
LINE
  8
0
 10
20.2071
 20
-3.5321
 11
20.366
 21
-3.325
  0
LINE
  8
0
 10
20.366
 20
-3.325
 11
20.4659
 21
-3.08382
  0
LINE
  8
0
 10
20.4659
 20
-3.08382
 11
20.5
 21
-2.825
  0
LINE
  8
0
 10
20.5
 20
-2.825
 11
20.5
 21
2.825
  0
LINE
  8
0
 10
20.5
 20
2.825
 11
20.4659
 21
3.08382
  0
LINE
  8
0
 10
20.4659
 20
3.08382
 11
20.366
 21
3.325
  0
LINE
  8
0
 10
20.366
 20
3.325
 11
20.2071
 21
3.5321
  0
LINE
  8
0
 10
20.2071
 20
3.5321
 11
20
 21
3.69102
  0
LINE
  8
0
 10
20
 20
3.69102
 11
19.7588
 21
3.79092
  0
LINE
  8
0
 10
19.7588
 20
3.79092
 11
19.5
 21
3.825
  0
LINE
  8
0
 10
19.5
 20
3.825
 11
-19.5
 21
3.825
  0
LINE
  8
0
 10
-19.5
 20
3.825
 11
-19.7588
 21
3.79092
  0
LINE
  8
0
 10
-19.7588
 20
3.79092
 11
-20
 21
3.69102
  0
LINE
  8
0
 10
-20
 20
3.69102
 11
-20.2071
 21
3.5321
  0
LINE
  8
0
 10
-20.2071
 20
3.5321
 11
-20.366
 21
3.325
  0
LINE
  8
0
 10
-20.366
 20
3.325
 11
-20.4659
 21
3.08382
  0
LINE
  8
0
 10
-20.4659
 20
3.08382
 11
-20.5
 21
2.825
  0
LINE
  8
0
 10
-20.5
 20
2.825
 11
-20.5
 21
-2.825
  0
LINE
  8
0
 10
-20.5
 20
-2.825
 11
-20.4659
 21
-3.08382
  0
LINE
  8
0
 10
-20.4659
 20
-3.08382
 11
-20.366
 21
-3.325
  0
LINE
  8
0
 10
-20.366
 20
-3.325
 11
-20.2071
 21
-3.5321
  0
LINE
  8
0
 10
-20.2071
 20
-3.5321
 11
-20
 21
-3.69102
  0
LINE
  8
0
 10
-20
 20
-3.69102
 11
-19.7588
 21
-3.79092
  0
LINE
  8
0
 10
-19.7588
 20
-3.79092
 11
-19.5
 21
-3.825
  0
LINE
  8
0
 10
-19.5
 20
-3.825
 11
19.5
 21
-3.825
  0
LINE
  8
0
 10
19.5
 20
-3.825
 11
19.7588
 21
-3.79092
  0
LINE
  8
0
 10
-18.3554
 20
-0.5867
 11
-18.6759
 21
-0.423355
  0
LINE
  8
0
 10
-18.6759
 20
-0.423355
 11
-18.9304
 21
-0.168945
  0
LINE
  8
0
 10
-18.9304
 20
-0.168945
 11
-19.0937
 21
0.151627
  0
LINE
  8
0
 10
-19.0937
 20
0.151627
 11
-19.15
 21
0.506989
  0
LINE
  8
0
 10
-19.15
 20
0.506989
 11
-19.0937
 21
0.862366
  0
LINE
  8
0
 10
-19.0937
 20
0.862366
 11
-18.9304
 21
1.18295
  0
LINE
  8
0
 10
-18.9304
 20
1.18295
 11
-18.6759
 21
1.43736
  0
LINE
  8
0
 10
-18.6759
 20
1.43736
 11
-18.3554
 21
1.60071
  0
LINE
  8
0
 10
-18.3554
 20
1.60071
 11
-18
 21
1.657
  0
LINE
  8
0
 10
-18
 20
1.657
 11
-17.6446
 21
1.60071
  0
LINE
  8
0
 10
-17.6446
 20
1.60071
 11
-17.324
 21
1.43736
  0
LINE
  8
0
 10
-17.324
 20
1.43736
 11
-17.0696
 21
1.18295
  0
LINE
  8
0
 10
-17.0696
 20
1.18295
 11
-16.9063
 21
0.862366
  0
LINE
  8
0
 10
-16.9063
 20
0.862366
 11
-16.85
 21
0.506989
  0
LINE
  8
0
 10
-16.85
 20
0.506989
 11
-16.9063
 21
0.151627
  0
LINE
  8
0
 10
-16.9063
 20
0.151627
 11
-17.0696
 21
-0.168945
  0
LINE
  8
0
 10
-17.0696
 20
-0.168945
 11
-17.324
 21
-0.423355
  0
LINE
  8
0
 10
-17.324
 20
-0.423355
 11
-17.6446
 21
-0.5867
  0
LINE
  8
0
 10
-17.6446
 20
-0.5867
 11
-18
 21
-0.64299
  0
LINE
  8
0
 10
-18
 20
-0.64299
 11
-18.3554
 21
-0.5867
  0
LINE
  8
0
 10
17.6446
 20
-0.5867
 11
17.324
 21
-0.423355
  0
LINE
  8
0
 10
17.324
 20
-0.423355
 11
17.0696
 21
-0.168945
  0
LINE
  8
0
 10
17.0696
 20
-0.168945
 11
16.9063
 21
0.151627
  0
LINE
  8
0
 10
16.9063
 20
0.151627
 11
16.85
 21
0.506989
  0
LINE
  8
0
 10
16.85
 20
0.506989
 11
16.9063
 21
0.862366
  0
LINE
  8
0
 10
16.9063
 20
0.862366
 11
17.0696
 21
1.18295
  0
LINE
  8
0
 10
17.0696
 20
1.18295
 11
17.324
 21
1.43736
  0
LINE
  8
0
 10
17.324
 20
1.43736
 11
17.6446
 21
1.60071
  0
LINE
  8
0
 10
17.6446
 20
1.60071
 11
18
 21
1.657
  0
LINE
  8
0
 10
18
 20
1.657
 11
18.3554
 21
1.60071
  0
LINE
  8
0
 10
18.3554
 20
1.60071
 11
18.6759
 21
1.43736
  0
LINE
  8
0
 10
18.6759
 20
1.43736
 11
18.9304
 21
1.18295
  0
LINE
  8
0
 10
18.9304
 20
1.18295
 11
19.0937
 21
0.862366
  0
LINE
  8
0
 10
19.0937
 20
0.862366
 11
19.15
 21
0.506989
  0
LINE
  8
0
 10
19.15
 20
0.506989
 11
19.0937
 21
0.151627
  0
LINE
  8
0
 10
19.0937
 20
0.151627
 11
18.9304
 21
-0.168945
  0
LINE
  8
0
 10
18.9304
 20
-0.168945
 11
18.6759
 21
-0.423355
  0
LINE
  8
0
 10
18.6759
 20
-0.423355
 11
18.3554
 21
-0.5867
  0
LINE
  8
0
 10
18.3554
 20
-0.5867
 11
18
 21
-0.64299
  0
LINE
  8
0
 10
18
 20
-0.64299
 11
17.6446
 21
-0.5867
  0
ENDSEC
  0
SECTION
  2
OBJECTS
  0
DICTIONARY
  0
ENDSEC
  0
EOF
