  0
SECTION
  2
BLOCKS
  0
ENDSEC
  0
SECTION
  2
ENTITIES
  0
LINE
  8
0
 10
20
 20
3.5
 11
-20
 21
3.5
  0
LINE
  8
0
 10
-20
 20
3.5
 11
-20
 21
-3.5
  0
LINE
  8
0
 10
-20
 20
-3.5
 11
20
 21
-3.5
  0
LINE
  8
0
 10
20
 20
-3.5
 11
20
 21
3.5
  0
LINE
  8
0
 10
-18.3554
 20
-1.0937
 11
-18.6759
 21
-0.930359
  0
LINE
  8
0
 10
-18.6759
 20
-0.930359
 11
-18.9304
 21
-0.675949
  0
LINE
  8
0
 10
-18.9304
 20
-0.675949
 11
-19.0937
 21
-0.355362
  0
LINE
  8
0
 10
-19.0937
 20
-0.355362
 11
-19.15
 21
0
  0
LINE
  8
0
 10
-19.15
 20
0
 11
-19.0937
 21
0.355362
  0
LINE
  8
0
 10
-19.0937
 20
0.355362
 11
-18.9304
 21
0.675949
  0
LINE
  8
0
 10
-18.9304
 20
0.675949
 11
-18.6759
 21
0.930359
  0
LINE
  8
0
 10
-18.6759
 20
0.930359
 11
-18.3554
 21
1.0937
  0
LINE
  8
0
 10
-18.3554
 20
1.0937
 11
-18
 21
1.14999
  0
LINE
  8
0
 10
-18
 20
1.14999
 11
-17.6446
 21
1.0937
  0
LINE
  8
0
 10
-17.6446
 20
1.0937
 11
-17.324
 21
0.930359
  0
LINE
  8
0
 10
-17.324
 20
0.930359
 11
-17.0696
 21
0.675949
  0
LINE
  8
0
 10
-17.0696
 20
0.675949
 11
-16.9063
 21
0.355362
  0
LINE
  8
0
 10
-16.9063
 20
0.355362
 11
-16.85
 21
0
  0
LINE
  8
0
 10
-16.85
 20
0
 11
-16.9063
 21
-0.355362
  0
LINE
  8
0
 10
-16.9063
 20
-0.355362
 11
-17.0696
 21
-0.675949
  0
LINE
  8
0
 10
-17.0696
 20
-0.675949
 11
-17.324
 21
-0.930359
  0
LINE
  8
0
 10
-17.324
 20
-0.930359
 11
-17.6446
 21
-1.0937
  0
LINE
  8
0
 10
-17.6446
 20
-1.0937
 11
-18
 21
-1.14999
  0
LINE
  8
0
 10
-18
 20
-1.14999
 11
-18.3554
 21
-1.0937
  0
LINE
  8
0
 10
17.6446
 20
-1.0937
 11
17.324
 21
-0.930359
  0
LINE
  8
0
 10
17.324
 20
-0.930359
 11
17.0696
 21
-0.675949
  0
LINE
  8
0
 10
17.0696
 20
-0.675949
 11
16.9063
 21
-0.355362
  0
LINE
  8
0
 10
16.9063
 20
-0.355362
 11
16.85
 21
0
  0
LINE
  8
0
 10
16.85
 20
0
 11
16.9063
 21
0.355362
  0
LINE
  8
0
 10
16.9063
 20
0.355362
 11
17.0696
 21
0.675949
  0
LINE
  8
0
 10
17.0696
 20
0.675949
 11
17.324
 21
0.930359
  0
LINE
  8
0
 10
17.324
 20
0.930359
 11
17.6446
 21
1.0937
  0
LINE
  8
0
 10
17.6446
 20
1.0937
 11
18
 21
1.14999
  0
LINE
  8
0
 10
18
 20
1.14999
 11
18.3554
 21
1.0937
  0
LINE
  8
0
 10
18.3554
 20
1.0937
 11
18.6759
 21
0.930359
  0
LINE
  8
0
 10
18.6759
 20
0.930359
 11
18.9304
 21
0.675949
  0
LINE
  8
0
 10
18.9304
 20
0.675949
 11
19.0937
 21
0.355362
  0
LINE
  8
0
 10
19.0937
 20
0.355362
 11
19.15
 21
0
  0
LINE
  8
0
 10
19.15
 20
0
 11
19.0937
 21
-0.355362
  0
LINE
  8
0
 10
19.0937
 20
-0.355362
 11
18.9304
 21
-0.675949
  0
LINE
  8
0
 10
18.9304
 20
-0.675949
 11
18.6759
 21
-0.930359
  0
LINE
  8
0
 10
18.6759
 20
-0.930359
 11
18.3554
 21
-1.0937
  0
LINE
  8
0
 10
18.3554
 20
-1.0937
 11
18
 21
-1.14999
  0
LINE
  8
0
 10
18
 20
-1.14999
 11
17.6446
 21
-1.0937
  0
ENDSEC
  0
SECTION
  2
OBJECTS
  0
DICTIONARY
  0
ENDSEC
  0
EOF
